<svg xmlns="http://www.w3.org/2000/svg" xmlns:xlink="http://www.w3.org/1999/xlink" width="69" height="69" viewBox="0 0 69 69">
  <defs>
    <clipPath id="clip-path">
      <rect id="Rectángulo_35037" data-name="Rectángulo 35037" width="52.726" height="69" fill="none"/>
    </clipPath>
  </defs>
  <g id="Grupo_971774" data-name="Grupo 971774" transform="translate(-196 -432)">
    <rect id="Rectángulo_35035" data-name="Rectángulo 35035" width="69" height="69" transform="translate(196 432)" fill="none"/>
    <g id="Grupo_971773" data-name="Grupo 971773" transform="translate(204.137 432)">
      <g id="Grupo_971772" data-name="Grupo 971772" clip-path="url(#clip-path)">
        <rect id="Rectángulo_35036" data-name="Rectángulo 35036" width="50.568" height="59.287" rx="4" transform="translate(1.079 8.635)" fill="#eceff1"/>
        <path id="Trazado_119266" data-name="Trazado 119266" d="M218,64.071a2.912,2.912,0,0,1,2.906,2.906v53.475A2.912,2.912,0,0,1,218,123.358H195.622V64.071Z" transform="translate(-169.259 -55.436)" fill="#d1d1d6" fill-rule="evenodd"/>
        <path id="Trazado_119267" data-name="Trazado 119267" d="M113.27,11.78h5.713a4.942,4.942,0,0,1,9.605,0H134.3a.675.675,0,0,1,.674.674v6.209a.675.675,0,0,1-.674.674H113.27a.675.675,0,0,1-.674-.674V12.454a.675.675,0,0,1,.674-.674" transform="translate(-97.422 -6.924)" fill="#837683" fill-rule="evenodd"/>
        <path id="Trazado_119268" data-name="Trazado 119268" d="M195.622,8a4.942,4.942,0,0,1,4.8,3.778h5.713a.675.675,0,0,1,.674.674v6.209a.675.675,0,0,1-.674.674H195.622V8Z" transform="translate(-169.259 -6.924)" fill="#685e68" fill-rule="evenodd"/>
        <path id="Trazado_119269" data-name="Trazado 119269" d="M62.115,144.161H70.84A1.142,1.142,0,0,1,71.98,145.3v8.725a1.142,1.142,0,0,1-1.139,1.139H62.115a1.142,1.142,0,0,1-1.139-1.139V145.3a1.142,1.142,0,0,1,1.139-1.139" transform="translate(-52.759 -124.733)" fill="#fe646f" fill-rule="evenodd"/>
        <path id="Trazado_119270" data-name="Trazado 119270" d="M101.8,144.161h4.363A1.142,1.142,0,0,1,107.3,145.3v8.725a1.142,1.142,0,0,1-1.139,1.139H101.8Z" transform="translate(-88.082 -124.733)" fill="#fd4755" fill-rule="evenodd"/>
        <path id="Trazado_119271" data-name="Trazado 119271" d="M62.115,260.707H70.84a1.142,1.142,0,0,1,1.139,1.139v8.725a1.142,1.142,0,0,1-1.139,1.139H62.115a1.142,1.142,0,0,1-1.139-1.139v-8.725a1.142,1.142,0,0,1,1.139-1.139" transform="translate(-52.759 -225.573)" fill="#6cf5c2" fill-rule="evenodd"/>
        <path id="Trazado_119272" data-name="Trazado 119272" d="M101.8,260.707h4.363a1.142,1.142,0,0,1,1.139,1.139v8.725a1.142,1.142,0,0,1-1.139,1.139H101.8Z" transform="translate(-88.082 -225.573)" fill="#00e499" fill-rule="evenodd"/>
        <path id="Trazado_119273" data-name="Trazado 119273" d="M62.115,377.253H70.84a1.142,1.142,0,0,1,1.139,1.139v8.725a1.142,1.142,0,0,1-1.139,1.139H62.115a1.142,1.142,0,0,1-1.139-1.139v-8.725a1.142,1.142,0,0,1,1.139-1.139" transform="translate(-52.759 -326.413)" fill="#8ac9fe" fill-rule="evenodd"/>
        <path id="Trazado_119274" data-name="Trazado 119274" d="M101.8,377.253h4.363a1.142,1.142,0,0,1,1.139,1.139v8.725a1.142,1.142,0,0,1-1.139,1.139H101.8Z" transform="translate(-88.082 -326.413)" fill="#60b7ff" fill-rule="evenodd"/>
        <path id="Trazado_119275" data-name="Trazado 119275" d="M36.552,58.6a1.079,1.079,0,0,1-1.078,1.078h-9.3a1.078,1.078,0,1,1,0-2.156h9.3A1.079,1.079,0,0,1,36.552,58.6m4.986-4.515a1.079,1.079,0,0,1-1.078,1.078H26.174a1.078,1.078,0,0,1,0-2.156H40.459a1.079,1.079,0,0,1,1.078,1.078M25.1,42.893a1.078,1.078,0,0,1,1.078-1.078h9.3a1.078,1.078,0,0,1,0,2.156h-9.3A1.078,1.078,0,0,1,25.1,42.893m16.441-4.515a1.079,1.079,0,0,1-1.078,1.078H26.174a1.078,1.078,0,1,1,0-2.156H40.459a1.079,1.079,0,0,1,1.078,1.078M25.1,27.187a1.078,1.078,0,0,1,1.078-1.078h9.3a1.078,1.078,0,1,1,0,2.156h-9.3A1.078,1.078,0,0,1,25.1,27.187m16.441-4.515a1.079,1.079,0,0,1-1.078,1.078H26.174a1.078,1.078,0,0,1,0-2.156H40.459a1.079,1.079,0,0,1,1.078,1.078M16.879,55.333,14.15,58.707a1.084,1.084,0,0,1-.782.4h-.057a1.077,1.077,0,0,1-.762-.316l-1.913-1.913a1.078,1.078,0,0,1,1.524-1.524l1.066,1.065L15.2,53.977a1.078,1.078,0,0,1,1.676,1.357ZM18.142,60.7V51.979a.063.063,0,0,0-.06-.061H9.357a.064.064,0,0,0-.062.061V60.7a.064.064,0,0,0,.062.06h8.725a.062.062,0,0,0,.06-.06m-.06-10.943H9.357a2.22,2.22,0,0,0-2.218,2.217V60.7a2.22,2.22,0,0,0,2.218,2.217h8.725A2.22,2.22,0,0,0,20.3,60.7V51.979a2.22,2.22,0,0,0-2.217-2.217m-1.2-10.135L14.15,43a1.083,1.083,0,0,1-.782.4h-.057a1.077,1.077,0,0,1-.762-.316l-1.913-1.913a1.078,1.078,0,1,1,1.524-1.524l1.066,1.065L15.2,38.27a1.078,1.078,0,0,1,1.676,1.357ZM18.142,45V36.273a.063.063,0,0,0-.06-.061H9.357a.064.064,0,0,0-.062.061V45a.064.064,0,0,0,.062.06h8.725a.062.062,0,0,0,.06-.06m-.06-10.943H9.357a2.22,2.22,0,0,0-2.218,2.217V45a2.22,2.22,0,0,0,2.218,2.217h8.725A2.219,2.219,0,0,0,20.3,45V36.273a2.22,2.22,0,0,0-2.217-2.217m-1.2-10.136L14.15,27.294a1.08,1.08,0,0,1-.782.4h-.057a1.077,1.077,0,0,1-.762-.315l-1.913-1.913a1.078,1.078,0,1,1,1.524-1.524l1.066,1.065L15.2,22.565a1.078,1.078,0,1,1,1.676,1.355Zm1.264,5.372V20.567a.063.063,0,0,0-.06-.061H9.357a.064.064,0,0,0-.062.061v8.726a.064.064,0,0,0,.062.061h8.725A.063.063,0,0,0,18.142,29.292Zm-.06-10.943H9.357a2.22,2.22,0,0,0-2.218,2.217v8.726A2.22,2.22,0,0,0,9.357,31.51h8.725A2.22,2.22,0,0,0,20.3,29.292V20.567a2.22,2.22,0,0,0-2.217-2.217M50.569,65.016V11.541A1.831,1.831,0,0,0,48.74,9.713H38.631v2.7a1.079,1.079,0,0,1-1.078,1.078H15.174A1.079,1.079,0,0,1,14.1,12.413v-2.7H3.985a1.831,1.831,0,0,0-1.829,1.828V65.016a1.831,1.831,0,0,0,1.829,1.828H48.74a1.83,1.83,0,0,0,1.829-1.828M16.252,5.934H21.56a1.078,1.078,0,0,0,1.049-.825,3.863,3.863,0,0,1,7.509,0,1.078,1.078,0,0,0,1.048.825h5.309v5.4H16.252ZM48.74,7.557H38.631v-2.7a1.079,1.079,0,0,0-1.078-1.078h-5.6a6.022,6.022,0,0,0-11.178,0h-5.6A1.079,1.079,0,0,0,14.1,4.857v2.7H3.985A3.99,3.99,0,0,0,0,11.541V65.015A3.99,3.99,0,0,0,3.985,69H48.74a3.99,3.99,0,0,0,3.985-3.985V11.541A3.989,3.989,0,0,0,48.74,7.557" fill-rule="evenodd"/>
      </g>
    </g>
  </g>
</svg>
