<svg id="senal-de-stop" xmlns="http://www.w3.org/2000/svg" width="32.679" height="32.683" viewBox="0 0 32.679 32.683">
  <path id="Trazado_113652" data-name="Trazado 113652" d="M22.472.835H10.924A4.315,4.315,0,0,0,7.187,2.993l-5.774,10a4.315,4.315,0,0,0,0,4.315l5.774,10a4.315,4.315,0,0,0,3.737,2.158H22.472a4.315,4.315,0,0,0,3.737-2.158l5.774-10a4.315,4.315,0,0,0,0-4.315l-5.774-10A4.315,4.315,0,0,0,22.472.835Z" transform="translate(-0.358 -0.356)" fill="#e7ecf1"/>
  <path id="Trazado_113653" data-name="Trazado 113653" d="M12.824,28.813a1.767,1.767,0,0,1-1.526-.881l-5.774-10a1.766,1.766,0,0,1,0-1.762l5.774-10a1.767,1.767,0,0,1,1.526-.881H24.372a1.767,1.767,0,0,1,1.526.881l5.774,10a1.766,1.766,0,0,1,0,1.762l-5.774,10a1.767,1.767,0,0,1-1.526.881H12.824Z" transform="translate(-2.259 -2.256)" fill="#ffd817"/>
  <path id="Trazado_113654" data-name="Trazado 113654" d="M32.042,12.4,27.914,5.246a.479.479,0,1,0-.829.479l4.129,7.151a3.846,3.846,0,0,1,0,3.836l-5.774,10a3.847,3.847,0,0,1-3.322,1.918H10.569a3.847,3.847,0,0,1-3.322-1.918l-5.774-10a3.846,3.846,0,0,1,0-3.836l5.774-10A3.846,3.846,0,0,1,10.569.958H22.117a3.846,3.846,0,0,1,3.322,1.918l.688,1.191a.479.479,0,0,0,.829-.479L26.269,2.4A4.806,4.806,0,0,0,22.117,0H10.569A4.806,4.806,0,0,0,6.418,2.4L.644,12.4a4.806,4.806,0,0,0,0,4.794l5.774,10a4.807,4.807,0,0,0,4.152,2.4h3.554V32.2a.479.479,0,0,0,.479.479h3.481a.479.479,0,0,0,.479-.479V29.589h3.554a4.807,4.807,0,0,0,4.151-2.4l5.774-10a4.806,4.806,0,0,0,0-4.794ZM17.605,31.726H15.081V29.589h2.524Z" transform="translate(-0.004 0)"/>
  <path id="Trazado_113655" data-name="Trazado 113655" d="M15.87,28.936h8.146a2.247,2.247,0,0,0,1.94-1.12l5.774-10a2.247,2.247,0,0,0,0-2.241l-5.774-10a2.247,2.247,0,0,0-1.94-1.12H12.468a2.247,2.247,0,0,0-1.94,1.12l-5.774,10a2.247,2.247,0,0,0,0,2.241l5.774,10a2.247,2.247,0,0,0,1.94,1.12h1.487a.479.479,0,1,0,0-.958H12.468a1.287,1.287,0,0,1-1.111-.642l-5.774-10a1.287,1.287,0,0,1,0-1.283l5.774-10a1.287,1.287,0,0,1,1.111-.642H24.016a1.287,1.287,0,0,1,1.111.642l5.774,10a1.287,1.287,0,0,1,0,1.283l-5.774,10a1.287,1.287,0,0,1-1.111.642H15.87a.479.479,0,1,0,0,.957Z" transform="translate(-1.902 -1.9)"/>
</svg>
