<svg xmlns="http://www.w3.org/2000/svg" xmlns:xlink="http://www.w3.org/1999/xlink" width="85" height="85" viewBox="0 0 85 85">
  <defs>
    <clipPath id="clip-path">
      <rect id="Rectángulo_34969" data-name="Rectángulo 34969" width="61.124" height="65" fill="none"/>
    </clipPath>
    <clipPath id="clip-path-3">
      <rect id="Rectángulo_34951" data-name="Rectángulo 34951" width="59.58" height="5.98" fill="none"/>
    </clipPath>
    <clipPath id="clip-path-5">
      <rect id="Rectángulo_34954" data-name="Rectángulo 34954" width="52.572" height="30.838" fill="none"/>
    </clipPath>
    <clipPath id="clip-path-6">
      <rect id="Rectángulo_34956" data-name="Rectángulo 34956" width="4.678" height="7.942" fill="none"/>
    </clipPath>
    <clipPath id="clip-path-7">
      <rect id="Rectángulo_34957" data-name="Rectángulo 34957" width="4.678" height="14.637" fill="none"/>
    </clipPath>
    <clipPath id="clip-path-8">
      <rect id="Rectángulo_34958" data-name="Rectángulo 34958" width="4.678" height="16.574" fill="none"/>
    </clipPath>
    <clipPath id="clip-path-9">
      <rect id="Rectángulo_34959" data-name="Rectángulo 34959" width="4.678" height="10.174" fill="none"/>
    </clipPath>
    <clipPath id="clip-path-10">
      <rect id="Rectángulo_34960" data-name="Rectángulo 34960" width="59.72" height="5.994" fill="none"/>
    </clipPath>
    <clipPath id="clip-path-12">
      <rect id="Rectángulo_34963" data-name="Rectángulo 34963" width="52.695" height="30.911" fill="none"/>
    </clipPath>
    <clipPath id="clip-path-13">
      <rect id="Rectángulo_34964" data-name="Rectángulo 34964" width="4.689" height="7.961" fill="none"/>
    </clipPath>
    <clipPath id="clip-path-14">
      <rect id="Rectángulo_34965" data-name="Rectángulo 34965" width="4.689" height="14.671" fill="none"/>
    </clipPath>
    <clipPath id="clip-path-15">
      <rect id="Rectángulo_34966" data-name="Rectángulo 34966" width="4.689" height="16.613" fill="none"/>
    </clipPath>
    <clipPath id="clip-path-16">
      <rect id="Rectángulo_34967" data-name="Rectángulo 34967" width="4.689" height="10.198" fill="none"/>
    </clipPath>
  </defs>
  <g id="Grupo_84480" data-name="Grupo 84480" transform="translate(-180 -401)">
    <circle id="Elipse_4828" data-name="Elipse 4828" cx="42.5" cy="42.5" r="42.5" transform="translate(180 401)" fill="#ffd817"/>
    <g id="Grupo_84479" data-name="Grupo 84479" transform="translate(191.938 418)">
      <g id="Grupo_84478" data-name="Grupo 84478" clip-path="url(#clip-path)">
        <g id="Grupo_84477" data-name="Grupo 84477">
          <g id="Grupo_84476" data-name="Grupo 84476" clip-path="url(#clip-path)">
            <path id="Trazado_119098" data-name="Trazado 119098" d="M145.2,321.515a1.963,1.963,0,0,1-1.677-.938l-11.943-19.465-11.943,19.465a1.965,1.965,0,1,1-3.349-2.055l13.618-22.194a1.965,1.965,0,0,1,3.349,0l13.618,22.194a1.965,1.965,0,0,1-1.673,2.993Z" transform="translate(-101.019 -257.246)" fill="#474747"/>
            <path id="Trazado_119099" data-name="Trazado 119099" d="M223.424,320.075a1.965,1.965,0,0,1-1.965-1.965V297.354a1.965,1.965,0,0,1,3.93,0V318.11A1.965,1.965,0,0,1,223.424,320.075Z" transform="translate(-192.862 -257.246)" fill="#474747"/>
            <path id="Trazado_119100" data-name="Trazado 119100" d="M65.3,8.7a3.035,3.035,0,0,1-3.035,3.035H8.663a3.035,3.035,0,1,1,0-6.07h53.6A3.035,3.035,0,0,1,65.3,8.7" transform="translate(-4.901 -4.933)" fill="#f78721"/>
            <path id="Trazado_119101" data-name="Trazado 119101" d="M65.3,294.54a3.035,3.035,0,0,1-3.035,3.035H8.663a3.035,3.035,0,1,1,0-6.07h53.6A3.035,3.035,0,0,1,65.3,294.54" transform="translate(-4.901 -253.863)" fill="#f78721"/>
            <g id="Grupo_84436" data-name="Grupo 84436" transform="translate(0.818 37.733)" opacity="0.1" style="isolation: isolate">
              <g id="Grupo_84435" data-name="Grupo 84435">
                <g id="Grupo_84434" data-name="Grupo 84434" clip-path="url(#clip-path-3)">
                  <path id="Trazado_119102" data-name="Trazado 119102" d="M65.912,295.154a3.04,3.04,0,0,1-3.033,3.039H9.273a3.04,3.04,0,0,1-2.941-2.3,3.057,3.057,0,0,0,.74.092h53.6a3.033,3.033,0,0,0,2.941-3.773,3.036,3.036,0,0,1,2.3,2.941" transform="translate(-6.332 -292.213)"/>
                </g>
              </g>
            </g>
            <g id="Grupo_84439" data-name="Grupo 84439" transform="translate(0.772 0.821)" opacity="0.1" style="isolation: isolate">
              <g id="Grupo_84438" data-name="Grupo 84438">
                <g id="Grupo_84437" data-name="Grupo 84437" clip-path="url(#clip-path-3)">
                  <path id="Trazado_119103" data-name="Trazado 119103" d="M65.557,9.3a3.04,3.04,0,0,1-3.033,3.039H8.918a3.04,3.04,0,0,1-2.941-2.3,3.058,3.058,0,0,0,.74.092h53.6a3.033,3.033,0,0,0,2.941-3.773,3.036,3.036,0,0,1,2.3,2.941" transform="translate(-5.977 -6.359)"/>
                </g>
              </g>
            </g>
            <rect id="Rectángulo_34953" data-name="Rectángulo 34953" width="52.574" height="30.84" transform="translate(4.275 6.802)" fill="#e8f1f8"/>
            <g id="Grupo_84442" data-name="Grupo 84442" transform="translate(4.276 6.803)" opacity="0.1" style="isolation: isolate">
              <g id="Grupo_84441" data-name="Grupo 84441">
                <g id="Grupo_84440" data-name="Grupo 84440" clip-path="url(#clip-path-5)">
                  <path id="Trazado_119104" data-name="Trazado 119104" d="M85.688,52.687V83.525H33.116V78.8H50.127A30.846,30.846,0,0,0,80.611,52.687Z" transform="translate(-33.116 -52.687)"/>
                </g>
              </g>
            </g>
            <rect id="Rectángulo_34955" data-name="Rectángulo 34955" width="4.676" height="7.942" rx="2.338" transform="translate(28.505 26.225)" fill="#f14f4a"/>
            <g id="Grupo_84445" data-name="Grupo 84445" transform="translate(28.504 26.225)" opacity="0.1" style="isolation: isolate">
              <g id="Grupo_84444" data-name="Grupo 84444">
                <g id="Grupo_84443" data-name="Grupo 84443" clip-path="url(#clip-path-6)">
                  <path id="Trazado_119105" data-name="Trazado 119105" d="M225.42,203.814v6.49a.727.727,0,0,1-.726.726h-3.226a.727.727,0,0,1-.726-.726v-.073a3.949,3.949,0,0,0,3.313-3.9v-3.248h.639a.727.727,0,0,1,.726.726" transform="translate(-220.742 -203.088)"/>
                </g>
              </g>
            </g>
            <path id="Trazado_119106" data-name="Trazado 119106" d="M277.749,151.971v13.185a.726.726,0,0,1-.726.726H273.8a.726.726,0,0,1-.726-.726V151.971a.726.726,0,0,1,.726-.726h3.224a.726.726,0,0,1,.726.726" transform="translate(-237.811 -131.715)" fill="#475da9"/>
            <g id="Grupo_84448" data-name="Grupo 84448" transform="translate(35.261 19.53)" opacity="0.1" style="isolation: isolate">
              <g id="Grupo_84447" data-name="Grupo 84447">
                <g id="Grupo_84446" data-name="Grupo 84446" clip-path="url(#clip-path-7)">
                  <path id="Trazado_119107" data-name="Trazado 119107" d="M277.745,151.971v13.185a.727.727,0,0,1-.726.726h-3.226a.727.727,0,0,1-.726-.726v-.073a3.949,3.949,0,0,0,3.313-3.9v-9.942h.639A.727.727,0,0,1,277.745,151.971Z" transform="translate(-273.067 -151.245)"/>
                </g>
              </g>
            </g>
            <path id="Trazado_119108" data-name="Trazado 119108" d="M382.4,136.966v15.122a.726.726,0,0,1-.726.726h-3.224a.726.726,0,0,1-.726-.726V136.966a.726.726,0,0,1,.726-.726h3.224a.726.726,0,0,1,.726.726" transform="translate(-328.95 -118.647)" fill="#fdcf17"/>
            <g id="Grupo_84451" data-name="Grupo 84451" transform="translate(48.775 17.593)" opacity="0.1" style="isolation: isolate">
              <g id="Grupo_84450" data-name="Grupo 84450">
                <g id="Grupo_84449" data-name="Grupo 84449" clip-path="url(#clip-path-8)">
                  <path id="Trazado_119109" data-name="Trazado 119109" d="M382.4,136.966v15.122a.727.727,0,0,1-.726.726h-3.226a.727.727,0,0,1-.726-.726v-.073a3.949,3.949,0,0,0,3.313-3.9V136.24h.639A.727.727,0,0,1,382.4,136.966Z" transform="translate(-377.719 -136.24)"/>
                </g>
              </g>
            </g>
            <path id="Trazado_119110" data-name="Trazado 119110" d="M330.075,186.533v8.722a.726.726,0,0,1-.726.726h-3.224a.726.726,0,0,1-.726-.726v-8.722a.726.726,0,0,1,.726-.726h3.224a.726.726,0,0,1,.726.726" transform="translate(-283.38 -161.814)" fill="#0e9c4a"/>
            <g id="Grupo_84454" data-name="Grupo 84454" transform="translate(42.018 23.993)" opacity="0.1" style="isolation: isolate">
              <g id="Grupo_84453" data-name="Grupo 84453">
                <g id="Grupo_84452" data-name="Grupo 84452" clip-path="url(#clip-path-9)">
                  <path id="Trazado_119111" data-name="Trazado 119111" d="M330.071,186.533v8.722a.727.727,0,0,1-.726.726h-3.226a.727.727,0,0,1-.726-.726v-.073a3.949,3.949,0,0,0,3.313-3.9v-5.479h.639A.727.727,0,0,1,330.071,186.533Z" transform="translate(-325.393 -185.807)"/>
                </g>
              </g>
            </g>
            <path id="Trazado_119112" data-name="Trazado 119112" d="M214.689,99.4l7.5-7.305,7.455,5.828a.657.657,0,0,0,.883-.07l6.772-7.271V91.97a.655.655,0,1,0,1.31,0V88.917a.832.832,0,0,0-.2-.47.74.74,0,0,0-.453-.185H234.9a.655.655,0,0,0,0,1.31h1.547l-6.47,6.948-7.432-5.81a.655.655,0,0,0-.861.047l-7.906,7.7a.655.655,0,0,0,.915.938Z" transform="translate(-185.998 -76.865)"/>
            <path id="Trazado_119113" data-name="Trazado 119113" d="M83.855,88.262h-9a.655.655,0,1,0,0,1.31h9a.655.655,0,1,0,0-1.31" transform="translate(-64.615 -76.865)"/>
            <path id="Trazado_119114" data-name="Trazado 119114" d="M83.855,121.548h-9a.655.655,0,0,0,0,1.31h9a.655.655,0,1,0,0-1.31" transform="translate(-64.615 -105.853)"/>
            <path id="Trazado_119115" data-name="Trazado 119115" d="M80.79,154.834H74.851a.655.655,0,1,0,0,1.31H80.79a.655.655,0,1,0,0-1.31" transform="translate(-64.615 -134.84)"/>
            <path id="Trazado_119116" data-name="Trazado 119116" d="M80.79,188.12H74.851a.655.655,0,0,0,0,1.31H80.79a.655.655,0,0,0,0-1.31" transform="translate(-64.615 -163.828)"/>
            <path id="Trazado_119117" data-name="Trazado 119117" d="M377.256,131.168h-3.224a1.383,1.383,0,0,0-1.381,1.381v15.123a1.383,1.383,0,0,0,1.381,1.381h3.224a1.383,1.383,0,0,0,1.381-1.381V132.549A1.383,1.383,0,0,0,377.256,131.168Zm.071,16.5a.071.071,0,0,1-.071.071h-3.224a.071.071,0,0,1-.071-.071V132.549a.071.071,0,0,1,.071-.071h3.224a.071.071,0,0,1,.071.071Z" transform="translate(-324.531 -114.23)"/>
            <path id="Trazado_119118" data-name="Trazado 119118" d="M61.536,4.282a3.694,3.694,0,0,0-3.69-3.69H4.245A3.688,3.688,0,0,0,4.1,7.965V37.509a3.688,3.688,0,0,0,.142,7.373H25.357L15.2,61.448a2.619,2.619,0,0,0,4.462,2.743L28.428,49.9V61.379a2.62,2.62,0,1,0,5.24,0V49.906L42.43,64.19a2.619,2.619,0,0,0,4.465-2.74L36.733,44.882H57.846a3.688,3.688,0,0,0,.141-7.373V7.965A3.692,3.692,0,0,0,61.536,4.282ZM28.428,47.4,18.542,63.508a1.309,1.309,0,0,1-2.229-1.373L26.894,44.882h1.535V47.4Zm3.93,13.98a1.31,1.31,0,1,1-2.62,0v-16.5h2.62Zm13.421.756a1.3,1.3,0,0,1-.434,1.8,1.324,1.324,0,0,1-1.8-.426L33.669,47.4V44.882H35.2ZM60.225,41.192a2.383,2.383,0,0,1-2.38,2.38H4.245a2.38,2.38,0,1,1,0-4.76h53.6a2.383,2.383,0,0,1,2.38,2.38M5.413,7.972H56.677V37.5H5.413Zm52.433-1.31H4.245a2.38,2.38,0,1,1,0-4.76h53.6a2.38,2.38,0,0,1,0,4.76" transform="translate(-0.483 -0.516)"/>
            <path id="Trazado_119119" data-name="Trazado 119119" d="M324.93,180.734h-3.224a1.383,1.383,0,0,0-1.381,1.381v8.722a1.383,1.383,0,0,0,1.381,1.381h3.224a1.383,1.383,0,0,0,1.381-1.381v-8.722a1.383,1.383,0,0,0-1.381-1.381m.071,10.1a.071.071,0,0,1-.071.071h-3.224a.071.071,0,0,1-.071-.071v-8.722a.071.071,0,0,1,.071-.071h3.224a.071.071,0,0,1,.071.071Z" transform="translate(-278.962 -157.396)"/>
            <path id="Trazado_119120" data-name="Trazado 119120" d="M272.6,146.173h-3.224A1.383,1.383,0,0,0,268,147.554v13.185a1.383,1.383,0,0,0,1.381,1.381H272.6a1.383,1.383,0,0,0,1.381-1.381V147.554a1.383,1.383,0,0,0-1.381-1.381m.071,14.566a.071.071,0,0,1-.071.071h-3.224a.071.071,0,0,1-.071-.071V147.554a.071.071,0,0,1,.071-.071H272.6a.071.071,0,0,1,.071.071Z" transform="translate(-233.393 -127.298)"/>
            <path id="Trazado_119121" data-name="Trazado 119121" d="M220.279,198.015h-3.224a1.383,1.383,0,0,0-1.381,1.381v6.49a1.383,1.383,0,0,0,1.381,1.381h3.224a1.383,1.383,0,0,0,1.381-1.381V199.4a1.383,1.383,0,0,0-1.381-1.381m.071,7.871a.071.071,0,0,1-.071.071h-3.224a.071.071,0,0,1-.071-.071V199.4a.071.071,0,0,1,.071-.071h3.224a.071.071,0,0,1,.071.071Z" transform="translate(-187.824 -172.445)"/>
            <path id="Trazado_119122" data-name="Trazado 119122" d="M144.985,321.678a1.968,1.968,0,0,1-1.68-.94l-11.971-19.511-11.971,19.511a1.969,1.969,0,1,1-3.357-2.06l13.65-22.247a1.969,1.969,0,0,1,3.357,0l13.65,22.247a1.97,1.97,0,0,1-1.676,3Z" transform="translate(-100.771 -257.335)" fill="#474747"/>
            <path id="Trazado_119123" data-name="Trazado 119123" d="M223.394,320.237a1.97,1.97,0,0,1-1.97-1.97v-20.8a1.97,1.97,0,0,1,3.939,0v20.805a1.97,1.97,0,0,1-1.97,1.97" transform="translate(-192.832 -257.336)" fill="#474747"/>
            <path id="Trazado_119124" data-name="Trazado 119124" d="M64.894,8.127a3.042,3.042,0,0,1-3.042,3.042H8.125a3.042,3.042,0,1,1,0-6.084H61.852a3.042,3.042,0,0,1,3.042,3.042" transform="translate(-4.427 -4.428)" fill="#f78721"/>
            <path id="Trazado_119125" data-name="Trazado 119125" d="M64.894,294.64a3.042,3.042,0,0,1-3.042,3.042H8.125a3.042,3.042,0,1,1,0-6.084H61.852a3.042,3.042,0,0,1,3.042,3.042" transform="translate(-4.427 -253.944)" fill="#f78721"/>
            <g id="Grupo_84457" data-name="Grupo 84457" transform="translate(0.748 37.746)" opacity="0.1" style="isolation: isolate">
              <g id="Grupo_84456" data-name="Grupo 84456">
                <g id="Grupo_84455" data-name="Grupo 84455" clip-path="url(#clip-path-10)">
                  <path id="Trazado_119126" data-name="Trazado 119126" d="M65.511,295.256a3.047,3.047,0,0,1-3.04,3.046H8.739A3.047,3.047,0,0,1,5.791,296a3.065,3.065,0,0,0,.742.092H60.259a3.04,3.04,0,0,0,2.948-3.782A3.043,3.043,0,0,1,65.511,295.256Z" transform="translate(-5.791 -292.308)"/>
                </g>
              </g>
            </g>
            <g id="Grupo_84460" data-name="Grupo 84460" transform="translate(0.702 0.746)" opacity="0.1" style="isolation: isolate">
              <g id="Grupo_84459" data-name="Grupo 84459">
                <g id="Grupo_84458" data-name="Grupo 84458" clip-path="url(#clip-path-10)">
                  <path id="Trazado_119127" data-name="Trazado 119127" d="M65.155,8.729a3.047,3.047,0,0,1-3.04,3.046H8.383a3.047,3.047,0,0,1-2.948-2.3,3.065,3.065,0,0,0,.742.092H59.9a3.04,3.04,0,0,0,2.948-3.782,3.043,3.043,0,0,1,2.3,2.948" transform="translate(-5.435 -5.781)"/>
                </g>
              </g>
            </g>
            <rect id="Rectángulo_34962" data-name="Rectángulo 34962" width="52.698" height="30.913" transform="translate(4.213 6.741)" fill="#e8f1f8"/>
            <g id="Grupo_84463" data-name="Grupo 84463" transform="translate(4.214 6.743)" opacity="0.1" style="isolation: isolate">
              <g id="Grupo_84462" data-name="Grupo 84462">
                <g id="Grupo_84461" data-name="Grupo 84461" clip-path="url(#clip-path-12)">
                  <path id="Trazado_119128" data-name="Trazado 119128" d="M85.331,52.219V83.13h-52.7V78.4H49.687A30.918,30.918,0,0,0,80.243,52.219Z" transform="translate(-32.636 -52.219)"/>
                </g>
              </g>
            </g>
            <path id="Trazado_119129" data-name="Trazado 119129" d="M225.4,203.7v6.506a.728.728,0,0,1-.728.728h-3.232a.728.728,0,0,1-.728-.728V203.7a.728.728,0,0,1,.728-.728h3.232a.728.728,0,0,1,.728.728" transform="translate(-192.21 -176.763)" fill="#f14f4a"/>
            <g id="Grupo_84466" data-name="Grupo 84466" transform="translate(28.499 26.21)" opacity="0.1" style="isolation: isolate">
              <g id="Grupo_84465" data-name="Grupo 84465">
                <g id="Grupo_84464" data-name="Grupo 84464" clip-path="url(#clip-path-13)">
                  <path id="Trazado_119130" data-name="Trazado 119130" d="M225.393,203.7v6.506a.728.728,0,0,1-.728.728h-3.233a.728.728,0,0,1-.728-.728v-.073a3.958,3.958,0,0,0,3.321-3.905v-3.255h.64A.728.728,0,0,1,225.393,203.7Z" transform="translate(-220.704 -202.973)"/>
                </g>
              </g>
            </g>
            <path id="Trazado_119131" data-name="Trazado 119131" d="M277.846,151.736v13.216a.728.728,0,0,1-.728.728h-3.232a.728.728,0,0,1-.728-.728V151.736a.728.728,0,0,1,.728-.728h3.232a.728.728,0,0,1,.728.728" transform="translate(-237.886 -131.508)" fill="#475da9"/>
            <g id="Grupo_84469" data-name="Grupo 84469" transform="translate(35.272 19.5)" opacity="0.1" style="isolation: isolate">
              <g id="Grupo_84468" data-name="Grupo 84468">
                <g id="Grupo_84467" data-name="Grupo 84467" clip-path="url(#clip-path-14)">
                  <path id="Trazado_119132" data-name="Trazado 119132" d="M277.842,151.736v13.216a.728.728,0,0,1-.728.728h-3.233a.728.728,0,0,1-.728-.728v-.073a3.958,3.958,0,0,0,3.321-3.905v-9.966h.64a.728.728,0,0,1,.728.728" transform="translate(-273.153 -151.008)"/>
                </g>
              </g>
            </g>
            <path id="Trazado_119133" data-name="Trazado 119133" d="M382.744,136.7v15.158a.728.728,0,0,1-.728.728h-3.232a.728.728,0,0,1-.728-.728V136.7a.728.728,0,0,1,.728-.728h3.232a.728.728,0,0,1,.728.728" transform="translate(-329.239 -118.411)" fill="#fdcf17"/>
            <g id="Grupo_84472" data-name="Grupo 84472" transform="translate(48.818 17.557)" opacity="0.1" style="isolation: isolate">
              <g id="Grupo_84471" data-name="Grupo 84471">
                <g id="Grupo_84470" data-name="Grupo 84470" clip-path="url(#clip-path-15)">
                  <path id="Trazado_119134" data-name="Trazado 119134" d="M382.74,136.7v15.158a.728.728,0,0,1-.728.728h-3.233a.728.728,0,0,1-.728-.728v-.073a3.958,3.958,0,0,0,3.321-3.905V135.968h.64a.728.728,0,0,1,.728.728" transform="translate(-378.051 -135.968)"/>
                </g>
              </g>
            </g>
            <path id="Trazado_119135" data-name="Trazado 119135" d="M330.295,186.38v8.742a.728.728,0,0,1-.728.728h-3.232a.728.728,0,0,1-.728-.728V186.38a.728.728,0,0,1,.728-.728h3.232a.728.728,0,0,1,.728.728" transform="translate(-283.562 -161.679)" fill="#0e9c4a"/>
            <g id="Grupo_84475" data-name="Grupo 84475" transform="translate(42.045 23.973)" opacity="0.1" style="isolation: isolate">
              <g id="Grupo_84474" data-name="Grupo 84474">
                <g id="Grupo_84473" data-name="Grupo 84473" clip-path="url(#clip-path-16)">
                  <path id="Trazado_119136" data-name="Trazado 119136" d="M330.291,186.379v8.742a.728.728,0,0,1-.728.728H326.33a.728.728,0,0,1-.728-.728v-.073a3.958,3.958,0,0,0,3.321-3.905v-5.492h.64a.728.728,0,0,1,.728.728" transform="translate(-325.602 -185.651)"/>
                </g>
              </g>
            </g>
            <path id="Trazado_119137" data-name="Trazado 119137" d="M214.637,99.042l7.513-7.323,7.472,5.841a.658.658,0,0,0,.885-.07L237.3,90.2v1.392a.657.657,0,0,0,1.313,0v-3.06a.835.835,0,0,0-.2-.471.742.742,0,0,0-.454-.186h-3.06a.657.657,0,0,0,0,1.313h1.551l-6.486,6.964-7.45-5.824a.657.657,0,0,0-.863.047L213.72,98.1a.657.657,0,0,0,.917.94Z" transform="translate(-185.95 -76.53)"/>
            <path id="Trazado_119138" data-name="Trazado 119138" d="M83.5,87.877H74.471a.657.657,0,0,0,0,1.313H83.5a.657.657,0,1,0,0-1.313" transform="translate(-64.283 -76.529)"/>
            <path id="Trazado_119139" data-name="Trazado 119139" d="M83.5,121.242H74.471a.657.657,0,0,0,0,1.313H83.5a.657.657,0,1,0,0-1.313" transform="translate(-64.283 -105.586)"/>
            <path id="Trazado_119140" data-name="Trazado 119140" d="M80.424,154.606H74.471a.657.657,0,0,0,0,1.313h5.953a.657.657,0,0,0,0-1.313" transform="translate(-64.283 -134.642)"/>
            <path id="Trazado_119141" data-name="Trazado 119141" d="M80.424,187.971H74.471a.657.657,0,0,0,0,1.313h5.953a.657.657,0,0,0,0-1.313" transform="translate(-64.283 -163.698)"/>
            <path id="Trazado_119142" data-name="Trazado 119142" d="M377.587,130.884h-3.231a1.386,1.386,0,0,0-1.384,1.384v15.158a1.386,1.386,0,0,0,1.384,1.384h3.231a1.386,1.386,0,0,0,1.384-1.384V132.268a1.386,1.386,0,0,0-1.384-1.384m.071,16.542a.071.071,0,0,1-.071.071h-3.231a.071.071,0,0,1-.071-.071V132.268a.071.071,0,0,1,.071-.071h3.231a.071.071,0,0,1,.071.071Z" transform="translate(-324.809 -113.983)"/>
            <path id="Trazado_119143" data-name="Trazado 119143" d="M61.124,3.7a3.7,3.7,0,0,0-3.7-3.7H3.7a3.7,3.7,0,0,0-.142,7.39V37a3.7,3.7,0,0,0,.142,7.39H24.86L14.676,61a2.625,2.625,0,0,0,4.473,2.75l8.79-14.321v11.5a2.626,2.626,0,0,0,5.252,0V49.43l8.782,14.318A2.626,2.626,0,0,0,46.449,61L36.264,44.395H57.426A3.7,3.7,0,0,0,57.567,37V7.39A3.7,3.7,0,0,0,61.124,3.7ZM27.939,46.918l-9.91,16.146a1.312,1.312,0,0,1-2.234-1.377L26.4,44.395h1.538ZM31.878,60.93a1.313,1.313,0,0,1-2.626,0V44.395h2.626Zm13.452.758a1.3,1.3,0,0,1-.435,1.8,1.327,1.327,0,0,1-1.8-.427l-9.9-16.145V44.395h1.531ZM59.811,40.7a2.388,2.388,0,0,1-2.385,2.386H3.7a2.386,2.386,0,1,1,0-4.771H57.426A2.388,2.388,0,0,1,59.811,40.7M4.87,37V7.4H56.254V37H4.87ZM57.426,6.084H3.7a2.386,2.386,0,1,1,0-4.771H57.426a2.386,2.386,0,0,1,0,4.771"/>
            <path id="Trazado_119144" data-name="Trazado 119144" d="M325.138,180.567h-3.231a1.386,1.386,0,0,0-1.384,1.384v8.742a1.386,1.386,0,0,0,1.384,1.384h3.231a1.386,1.386,0,0,0,1.384-1.384v-8.742a1.386,1.386,0,0,0-1.384-1.384m.071,10.127a.071.071,0,0,1-.071.071h-3.231a.071.071,0,0,1-.071-.071v-8.742a.071.071,0,0,1,.071-.071h3.231a.071.071,0,0,1,.071.071Z" transform="translate(-279.133 -157.25)"/>
            <path id="Trazado_119145" data-name="Trazado 119145" d="M272.689,145.924h-3.231a1.386,1.386,0,0,0-1.384,1.384v13.216a1.386,1.386,0,0,0,1.384,1.384h3.231a1.386,1.386,0,0,0,1.384-1.384V147.308a1.386,1.386,0,0,0-1.384-1.384m.071,14.6a.071.071,0,0,1-.071.071h-3.231a.071.071,0,0,1-.071-.071V147.308a.071.071,0,0,1,.071-.071h3.231a.071.071,0,0,1,.071.071Z" transform="translate(-233.457 -127.081)"/>
            <path id="Trazado_119146" data-name="Trazado 119146" d="M220.24,197.889h-3.231a1.386,1.386,0,0,0-1.384,1.384v6.506a1.386,1.386,0,0,0,1.384,1.384h3.231a1.386,1.386,0,0,0,1.384-1.384v-6.506a1.386,1.386,0,0,0-1.384-1.384m.071,7.89a.071.071,0,0,1-.071.071h-3.231a.071.071,0,0,1-.071-.071v-6.506a.071.071,0,0,1,.071-.071h3.231a.071.071,0,0,1,.071.071Z" transform="translate(-187.781 -172.336)"/>
          </g>
        </g>
      </g>
    </g>
    <rect id="Rectángulo_34970" data-name="Rectángulo 34970" width="85" height="85" transform="translate(180 401)" fill="none"/>
  </g>
</svg>
